<svg width="23" height="24" viewBox="0 0 23 24" fill="none" xmlns="http://www.w3.org/2000/svg"><path d="M22.01 16.354V7.47c0-.786-.436-1.554-1.117-1.885L13.11 1.134a2.04 2.04 0 0 0-2.217 0l-7.785 4.45C2.444 6.022 1.99 6.703 1.99 7.47v8.884c0 .786.437 1.554 1.117 1.885l7.785 4.451a2.04 2.04 0 0 0 2.217 0l7.784-4.45c.664-.332 1.118-.995 1.118-1.886z" fill="#176C45"/><path d="M9.374 9.557c.087.367.698.646 2.653.646s2.479-.367 2.653-.733c.175-.454 1.065-2.391 1.327-3.404.174-.646-.437-.925-.89-.454-.786.82-1.153.82-1.24.454-.174-.366-1.152-2.304-1.414-2.757-.261-.454-.698-.367-.89 0-.174.366-1.24 2.39-1.414 2.757-.174.367-.436.367-1.239-.454-.436-.558-1.065-.192-.89.367.174.559 1.257 3.212 1.344 3.578z" fill="#FFC400"/><path d="M.995 17V9.407c0-.559.454-.995.995-.995h20.003c.559 0 .995.454.995.995v7.61a.994.994 0 0 1-.995.995H2.007A1.013 1.013 0 0 1 .995 17z" fill="#00AA5B"/><path d="M3.997 14.33v2.566h-1.5V9.6H5.34c.541 0 1.03.104 1.449.296.419.192.733.49.96.856.227.366.332.785.332 1.256 0 .716-.245 1.275-.734 1.693-.488.42-1.169.611-2.042.611H3.997v.018zm0-1.222h1.344c.402 0 .698-.087.908-.28.21-.191.314-.453.314-.802 0-.35-.105-.646-.314-.873-.21-.227-.506-.332-.873-.349H3.997v2.304zM12.06 14.381h-1.203v2.67H9.355V9.739h2.706c.855 0 1.536.192 1.99.576.454.384.698.925.698 1.624 0 .506-.105.907-.332 1.239-.227.332-.54.593-.977.803l1.588 2.985v.07H13.44l-1.38-2.654zm-1.203-1.222h1.221c.384 0 .664-.104.873-.296.21-.192.314-.454.314-.803 0-.35-.104-.611-.296-.82-.192-.193-.49-.297-.908-.297h-1.204v2.216zM22.01 13.421c0 .716-.122 1.344-.383 1.886-.262.54-.611.96-1.082 1.256-.472.297-1.013.437-1.624.437-.61 0-1.152-.14-1.623-.437a2.928 2.928 0 0 1-1.1-1.239c-.261-.541-.401-1.17-.401-1.868v-.366c0-.716.122-1.344.384-1.903.262-.54.628-.96 1.1-1.256.47-.297 1.012-.437 1.623-.437.61 0 1.152.14 1.623.437.471.296.838.715 1.1 1.256.262.541.384 1.17.384 1.885v.35zm-1.535-.331c0-.768-.14-1.344-.42-1.746-.279-.401-.663-.593-1.169-.593s-.89.192-1.17.593c-.278.402-.418.96-.418 1.728v.35c0 .75.14 1.326.419 1.727.28.42.663.611 1.187.611.506 0 .89-.192 1.17-.593.278-.402.4-.978.418-1.728v-.35h-.017z" fill="#fff"/></svg>