<svg id="Layer_1" data-name="Layer 1" xmlns="http://www.w3.org/2000/svg" viewBox="0 0 24 24"><defs><style>.cls-1{fill:#00aa5b;}.cls-2{fill:#145638;}.cls-3{fill:none;}</style></defs><path class="cls-1" d="M19.5,2H4.5a2,2,0,0,0-2,2V16a2,2,0,0,0,2,2h15a2,2,0,0,0,2-2V4A2,2,0,0,0,19.5,2Zm-1,13H5.54a.54.54,0,0,1-.4-.91l2.69-3.44a.51.51,0,0,1,.79.1l2.29,2.73L14.2,9.23a.55.55,0,0,1,.9,0l3.78,5C19.18,14.49,18.88,15,18.48,15Z"/><path class="cls-2" d="M10,8.5a2,2,0,1,0-2-2A2,2,0,0,0,10,8.5Z"/><rect class="cls-2" x="2.75" y="19.5" width="18.5" height="2.5" rx="1.25"/><rect class="cls-3" width="24" height="24"/></svg>