<svg id="Layer_1" data-name="Layer 1" xmlns="http://www.w3.org/2000/svg" viewBox="0 0 24 24"><defs><style>.cls-1{fill:#00aa5b;}.cls-2{fill:#145638;}.cls-3{fill:none;}</style></defs><path class="cls-1" d="M22.2,10.78,13.38,2.33a2,2,0,0,0-2.76,0L1.8,10.78a1,1,0,0,0,.69,1.72h1v8a2,2,0,0,0,2,2h13a2,2,0,0,0,2-2v-8h1A1,1,0,0,0,22.2,10.78ZM12,11.5a2,2,0,1,1,2-2A2,2,0,0,1,12,11.5Z"/><path class="cls-2" d="M10,15.5h4a1,1,0,0,1,1,1v6a0,0,0,0,1,0,0H9a0,0,0,0,1,0,0v-6A1,1,0,0,1,10,15.5Z"/><rect class="cls-3" width="24" height="24"/></svg>