<svg id="Layer_1" data-name="Layer 1" xmlns="http://www.w3.org/2000/svg" viewBox="0 0 24 24"><defs><style>.cls-1,.cls-3{fill:none;}.cls-2{fill:#2e3137;}.cls-3{stroke:#2e3137;stroke-miterlimit:10;stroke-width:1.5px;}</style></defs><rect class="cls-1" width="24" height="24"/><circle class="cls-2" cx="12" cy="8.5" r="1.5"/><path class="cls-3" d="M21.88,10.73,12.64,3a1,1,0,0,0-1.28,0l-9.24,7.7a1,1,0,0,0,.64,1.77H4v8a1,1,0,0,0,1,1H19a1,1,0,0,0,1-1v-8h1.24A1,1,0,0,0,21.88,10.73Z"/><path class="cls-3" d="M10.5,14.5h3a1,1,0,0,1,1,1v6a0,0,0,0,1,0,0h-5a0,0,0,0,1,0,0v-6A1,1,0,0,1,10.5,14.5Z"/></svg>