<svg xmlns="http://www.w3.org/2000/svg" width="24" height="24" viewBox="0 0 24 24">
    <g fill="none" fill-rule="evenodd">
        <path fill-rule="nonzero" d="M0 0h24v24H0z"/>
        <path fill="#9FA6B0" d="M11.002 14.125a3.128 3.128 0 0 1-3.127-3.123c0-1.724 1.4-3.126 3.123-3.127 1.723 0 3.127 1.4 3.127 3.123 0 1.724-1.4 3.126-3.123 3.127m6.728 2.28l-2.137-2.135a.919.919 0 0 0-.606-.262A4.974 4.974 0 0 0 16 10.997 5 5 0 1 0 11.003 16a4.974 4.974 0 0 0 3.01-1.016c.013.22.094.437.263.605l2.137 2.135a.93.93 0 1 0 1.317-1.318"/>
    </g>
</svg>
