<svg id="Layer_1" data-name="Layer 1" xmlns="http://www.w3.org/2000/svg" viewBox="0 0 24 24"><defs><style>.cls-1,.cls-2{fill:none;}.cls-2{stroke:#2e3137;stroke-linecap:round;stroke-linejoin:round;stroke-width:1.5px;}</style></defs><rect class="cls-1" width="24" height="24"/><path class="cls-2" d="M19.85,21l-2.6-2-1.86,1.69a1,1,0,0,1-1.31,0L12,19,9.92,20.73a1,1,0,0,1-1.31,0L6.75,19l-2.6,2a.25.25,0,0,1-.4-.2v-17a1,1,0,0,1,1-1H19.22a1,1,0,0,1,1,1v17A.25.25,0,0,1,19.85,21Z"/><path class="cls-2" d="M8,7h8"/><path class="cls-2" d="M8,11h8"/><path class="cls-2" d="M8,15h4"/></svg>