<svg class="css-102l4gb" viewBox="0 0 24 24"><path d="M16.34 3.83a4.37 4.37 0 0 0-2.74 1A6.18 6.18 0 0 0 12 6.7a6.18 6.18 0 0 0-1.6-1.92 4.37 4.37 0 0 0-2.74-1 5 5 0 0 0-4.91 5.38c0 3.29 2.64 5.53 6.63 8.93L11.62 20a.56.56 0 0 0 .76 0l2.24-1.93c4-3.4 6.63-5.64 6.63-8.93a5 5 0 0 0-4.91-5.31Z" style="fill:#00aa5b;stroke:#00aa5b;stroke-miterlimit:10;stroke-width:.75px"></path><path d="M0 0h24v24H0z" style="fill:none"></path><path d="M18.48 10.46a2.76 2.76 0 0 0-.07-3.22 3.06 3.06 0 0 0-.36-.36M16.4 13.12l.2-.18" style="fill:none;stroke:#fff;stroke-linecap:round;stroke-linejoin:round;stroke-width:1.5px"></path><rect x="19" y="17" width="1.5" height="4" rx="0.75" style="fill:#145638"></rect><rect x="19" y="17" width="1.5" height="4" rx="0.75" transform="rotate(90 19.75 19)" style="fill:#145638"></rect><rect x="3" y="15" width="1.5" height="4" rx="0.75" style="fill:#145638"></rect><rect x="3" y="15" width="1.5" height="4" rx="0.75" transform="rotate(90 3.75 17)" style="fill:#145638"></rect></svg>