<svg id="Layer_1" data-name="Layer 1" xmlns="http://www.w3.org/2000/svg" viewBox="0 0 24 24"><defs><style>.cls-1,.cls-2{fill:none;}.cls-2{stroke:#2e3137;stroke-miterlimit:10;stroke-width:1.5px;}</style></defs><rect class="cls-1" width="24" height="24"/><path class="cls-2" d="M16.34,3.83a4.37,4.37,0,0,0-2.74,1A6.18,6.18,0,0,0,12,6.7a6.18,6.18,0,0,0-1.6-1.92,4.37,4.37,0,0,0-2.74-1A5,5,0,0,0,2.75,9.16c0,3.29,2.64,5.53,6.63,8.93L11.62,20a.56.56,0,0,0,.76,0l2.24-1.93c4-3.4,6.63-5.64,6.63-8.93A5,5,0,0,0,16.34,3.83Z"/></svg>