<svg width="24" height="24" viewBox="0 0 24 24" fill="none" xmlns="http://www.w3.org/2000/svg">
<path d="M21.68 7.56C21.608 7.31909 21.489 7.09479 21.33 6.9C21.1726 6.70616 20.9746 6.54914 20.75 6.44C20.5162 6.32451 20.2606 6.25976 20 6.25H6.17C5.97424 6.26233 5.78175 6.30623 5.6 6.38L5.54 6.08C5.52974 5.82822 5.46975 5.58097 5.36351 5.35248C5.25726 5.12398 5.10685 4.91877 4.92094 4.74867C4.73504 4.57856 4.51731 4.44693 4.2803 4.36134C4.0433 4.27576 3.7917 4.23792 3.54 4.25H2.54C2.34109 4.25 2.15032 4.32902 2.00967 4.46967C1.86902 4.61032 1.79 4.80109 1.79 5C1.79 5.19891 1.86902 5.38968 2.00967 5.53033C2.15032 5.67098 2.34109 5.75 2.54 5.75H3.54C3.96 5.75 4.03 5.82 4.11 6.34L5.2 11.88L5.74 14.66C5.89395 15.5251 6.33843 16.3117 7 16.89C7.44879 17.2552 7.9758 17.5118 8.54 17.64C8.19467 18.0088 8.00175 18.4947 8 19C8 19.5304 8.21072 20.0391 8.58579 20.4142C8.96086 20.7893 9.46957 21 10 21C10.5304 21 11.0391 20.7893 11.4142 20.4142C11.7893 20.0391 12 19.5304 12 19C11.994 18.543 11.8317 18.1019 11.54 17.75H14.42C14.1866 18.0509 14.044 18.4122 14.0089 18.7915C13.9738 19.1707 14.0478 19.552 14.222 19.8907C14.3962 20.2293 14.6635 20.5112 14.9924 20.7031C15.3214 20.895 15.6983 20.9891 16.0788 20.9741C16.4593 20.9592 16.8277 20.836 17.1406 20.6189C17.4535 20.4017 17.6979 20.0998 17.845 19.7486C17.9922 19.3973 18.036 19.0114 17.9714 18.6361C17.9067 18.2608 17.7362 17.9117 17.48 17.63C18.0113 17.5043 18.5093 17.2655 18.94 16.93C19.6079 16.4022 20.074 15.6607 20.26 14.83L21.73 8.37V8.3C21.7687 8.05269 21.7516 7.79986 21.68 7.56ZM18.79 14.49C18.6801 14.9909 18.4017 15.4389 18.0013 15.7592C17.6009 16.0795 17.1028 16.2528 16.59 16.25H9.38C8.86107 16.2457 8.35958 16.0622 7.96046 15.7305C7.56135 15.3988 7.28916 14.9394 7.19 14.43L6 8.1C5.99731 8.06672 5.99731 8.03328 6 8V7.86C6.0287 7.82801 6.06249 7.80097 6.1 7.78H20C20.0427 7.7698 20.0873 7.7698 20.13 7.78C20.1675 7.80096 20.2013 7.82799 20.23 7.86C20.26 7.89 20.28 7.929 20.29 7.97C20.295 8.0065 20.295 8.0435 20.29 8.08L18.79 14.49Z" fill="currentColor"/>
</svg>
