<svg width="14" height="14" viewBox="0 0 14 14" fill="none" xmlns="http://www.w3.org/2000/svg">
<path fill-rule="evenodd" clip-rule="evenodd" d="M5.26166 1.63859C5.81323 1.41331 6.40423 1.30047 6.99999 1.30667C7.59591 1.30042 8.18707 1.41327 8.73877 1.63862C9.29047 1.86396 9.7916 2.19725 10.2127 2.61892C10.6339 3.04059 10.9665 3.54214 11.1911 4.09414C11.4158 4.64613 11.5279 5.23743 11.5208 5.83334C11.5208 10.0707 7.49816 12.467 7.22458 12.6292C7.15716 12.6658 7.08183 12.6855 7.00509 12.6865C6.92835 12.6876 6.85253 12.6699 6.78416 12.635L6.77541 12.6292C6.50183 12.4676 2.47916 10.0713 2.47916 5.83334C2.46861 4.9357 2.72833 4.05564 3.22455 3.30755C3.72078 2.55946 4.43057 1.97795 5.26166 1.63859ZM3.35416 5.83334C3.35416 9.08834 6.18333 11.1883 6.99999 11.7308C7.81666 11.1883 10.6458 9.07667 10.6458 5.83334C10.6514 5.35273 10.561 4.87584 10.3799 4.43064C10.1987 3.98545 9.93046 3.58091 9.59087 3.24078C9.25127 2.90064 8.84717 2.63175 8.40226 2.44988C7.95736 2.26801 7.48061 2.17683 6.99999 2.18167C6.51942 2.17698 6.04274 2.26828 5.59791 2.4502C5.15308 2.63213 4.74904 2.90103 4.40948 3.24113C4.06991 3.58124 3.80166 3.98571 3.62045 4.43083C3.43923 4.87595 3.3487 5.35277 3.35416 5.83334ZM5.78549 4.00809C6.14506 3.76808 6.56768 3.64 6.99999 3.64001C7.58069 3.64155 8.13708 3.87332 8.54715 4.28448C8.95721 4.69564 9.1875 5.25264 9.18749 5.83334C9.18648 6.21105 9.08768 6.58206 8.90072 6.91025C8.71376 7.23845 8.445 7.51264 8.12061 7.70613C7.79623 7.89963 7.42727 8.00583 7.04965 8.0144C6.67204 8.02298 6.29864 7.93363 5.96581 7.75505C5.63297 7.57648 5.35205 7.31477 5.15038 6.9954C4.94872 6.67603 4.83319 6.30989 4.81503 5.93261C4.79687 5.55534 4.87672 5.17979 5.04678 4.84253C5.21685 4.50527 5.47135 4.2178 5.78549 4.00809ZM6.26966 6.91892C6.55897 7.11254 6.91334 7.1833 7.25482 7.11564C7.5963 7.04798 7.89692 6.84744 8.09054 6.55813C8.28415 6.26882 8.35492 5.91445 8.28726 5.57297C8.21959 5.23149 8.01905 4.93088 7.72974 4.73726C7.4404 4.54822 7.08817 4.48093 6.74952 4.55001C6.41087 4.6191 6.11314 4.81897 5.92096 5.10624C5.72878 5.3935 5.65767 5.74498 5.72307 6.08436C5.78846 6.42374 5.9845 6.72363 6.26966 6.91892Z" fill="currentColor"/>
</svg>
