<svg class="unf-icon" viewBox="0 0 24 24" width="24" height="24" fill="#2E3137" style="display:inline-block;vertical-align:middle"><path d="M21.68 7.56a1.908 1.908 0 0 0-.35-.66 1.71 1.71 0 0 0-.58-.46 1.85 1.85 0 0 0-.75-.19H6.17a1.82 1.82 0 0 0-.57.13l-.06-.3a1.91 1.91 0 0 0-2-1.83h-1a.75.75 0 0 0 0 1.5h1c.42 0 .49.07.57.59l1.09 5.54.54 2.78A3.86 3.86 0 0 0 7 16.89a3.76 3.76 0 0 0 1.54.75A2 2 0 0 0 8 19a2 2 0 0 0 4 0 2 2 0 0 0-.46-1.25h2.88a2 2 0 1 0 3.06-.12 3.8 3.8 0 0 0 1.46-.7 3.71 3.71 0 0 0 1.32-2.1l1.47-6.46V8.3a1.68 1.68 0 0 0-.05-.74Zm-2.89 6.93a2.24 2.24 0 0 1-2.2 1.76H9.38a2.25 2.25 0 0 1-2.19-1.82L6 8.1A.62.62 0 0 1 6 8v-.14a.39.39 0 0 1 .1-.08H20a.28.28 0 0 1 .13 0 .389.389 0 0 1 .1.08c.03.03.05.069.06.11a.405.405 0 0 1 0 .11l-1.5 6.41Z"></path></svg>